<svg aria-hidden="true" style="position: absolute; width: 0; height: 0; overflow: hidden;" version="1.1" xmlns="http://www.w3.org/2000/svg" xmlns:xlink="http://www.w3.org/1999/xlink">
<defs>
<symbol id="logo-icon" viewBox="0 0 32 32">
<path d="M16.375 1.995c-0.031 0.014-0.077 0.048-0.103 0.077-0.026 0.031-1.002 1.576-2.17 3.44-1.602 2.552-2.124 3.411-2.133 3.488-0.026 0.245 0.268 0.395 0.454 0.236 0.026-0.023 0.942-1.474 2.041-3.226 1.096-1.753 2.004-3.186 2.013-3.186 0.014 0 1.49 2.341 4.422 7.027 0.163 0.259 0.517 0.822 0.785 1.252s0.719 1.147 0.996 1.593c0.28 0.447 0.602 0.959 0.717 1.138s0.437 0.691 0.717 1.138c0.994 1.587 1.49 2.381 1.704 2.723 0.12 0.191 0.22 0.353 0.22 0.361 0 0.011-2.447 0.017-5.439 0.017h-5.439v-1.462l0.094 0.088c0.234 0.225 0.631 0.407 1.033 0.478 0.314 0.054 0.48 0.054 0.582 0 0.137-0.068 0.16-0.245 0.054-0.37-0.057-0.063-0.094-0.077-0.265-0.085-0.828-0.054-1.313-0.427-1.459-1.124-0.023-0.114-0.037-0.213-0.029-0.219 0.006-0.009 0.088 0.048 0.18 0.122 0.317 0.256 0.848 0.438 1.296 0.438 0.16 0 0.2-0.011 0.265-0.071 0.157-0.142 0.054-0.41-0.16-0.415-0.677-0.014-1.213-0.296-1.425-0.745-0.094-0.205-0.168-0.509-0.168-0.714v-0.139l0.168 0.171c0.288 0.296 0.779 0.578 1.002 0.578 0.148 0 0.254-0.139 0.228-0.313-0.011-0.080-0.114-0.159-0.268-0.208-0.357-0.114-0.708-0.432-0.902-0.825-0.128-0.259-0.188-0.506-0.217-0.888-0.017-0.211-0.031-0.265-0.086-0.319-0.094-0.094-0.291-0.091-0.383 0.006-0.057 0.060-0.069 0.114-0.088 0.361-0.026 0.373-0.063 0.523-0.2 0.808-0.14 0.296-0.363 0.524-0.639 0.657-0.108 0.051-0.228 0.094-0.265 0.094-0.1 0-0.234 0.148-0.234 0.256 0 0.111 0.134 0.256 0.237 0.256 0.2 0 0.671-0.236 0.911-0.455 0.103-0.091 0.194-0.162 0.203-0.154 0.023 0.026-0.009 0.347-0.051 0.524-0.151 0.609-0.591 0.95-1.328 1.024-0.345 0.037-0.363 0.043-0.417 0.145-0.057 0.111-0.029 0.233 0.066 0.31 0.228 0.179 1.205-0.074 1.602-0.412l0.12-0.105v0.082c0 0.27-0.194 0.686-0.408 0.879-0.246 0.219-0.671 0.381-1.013 0.381-0.083 0-0.194 0.017-0.246 0.040-0.186 0.077-0.197 0.341-0.017 0.438 0.094 0.051 0.454 0.026 0.757-0.048 0.268-0.068 0.648-0.25 0.811-0.393 0.134-0.111 0.151-0.097 0.134 0.105-0.006 0.071-0.011 0.376-0.014 0.674l-0.003 0.549h-4.396v-1.912l0.134 0.119c0.157 0.137 0.525 0.322 0.765 0.384 0.246 0.065 0.685 0.088 0.768 0.043 0.146-0.077 0.168-0.25 0.049-0.373-0.074-0.071-0.106-0.083-0.251-0.083-0.383-0.003-0.802-0.154-1.056-0.381-0.166-0.151-0.306-0.393-0.363-0.637-0.040-0.176-0.029-0.216 0.043-0.131 0.057 0.068 0.263 0.205 0.454 0.299 0.371 0.182 1.045 0.265 1.171 0.139 0.12-0.12 0.094-0.307-0.049-0.378-0.043-0.023-0.188-0.048-0.323-0.057-0.54-0.037-0.976-0.296-1.182-0.697-0.074-0.148-0.16-0.447-0.16-0.569 0-0.063 0.009-0.060 0.137 0.051 0.3 0.267 0.834 0.455 1.285 0.455 0.194 0 0.243-0.009 0.291-0.057 0.077-0.077 0.097-0.182 0.051-0.273-0.051-0.108-0.148-0.154-0.34-0.154-0.214 0-0.562-0.091-0.771-0.202-0.2-0.105-0.391-0.304-0.494-0.504-0.074-0.148-0.16-0.447-0.16-0.569 0-0.063 0.009-0.060 0.134 0.051 0.174 0.151 0.534 0.327 0.819 0.398 0.217 0.054 0.617 0.077 0.717 0.040 0.071-0.028 0.134-0.176 0.114-0.267-0.031-0.142-0.103-0.176-0.403-0.202-0.737-0.063-1.193-0.413-1.339-1.027-0.023-0.1-0.043-0.211-0.043-0.245 0-0.063 0.009-0.060 0.128 0.046 0.297 0.259 0.751 0.43 1.216 0.452 0.283 0.014 0.308 0.011 0.363-0.043 0.083-0.082 0.103-0.185 0.057-0.279-0.051-0.108-0.148-0.154-0.34-0.154-0.2 0-0.545-0.085-0.739-0.185-0.434-0.219-0.682-0.674-0.685-1.249v-0.196l0.223 0.213c0.368 0.358 0.916 0.669 1.233 0.697 0.143 0.014 0.243-0.048 0.274-0.176 0.037-0.142-0.040-0.216-0.351-0.344-0.377-0.151-0.617-0.307-0.862-0.566-0.311-0.327-0.517-0.825-0.517-1.252 0-0.145-0.057-0.282-0.128-0.31-0.111-0.043-0.26-0.017-0.328 0.054-0.054 0.060-0.069 0.114-0.086 0.333-0.023 0.299-0.060 0.444-0.16 0.671-0.217 0.489-0.674 0.879-1.288 1.101-0.108 0.040-0.211 0.094-0.228 0.12-0.063 0.082-0.046 0.248 0.034 0.322 0.060 0.057 0.088 0.063 0.214 0.048 0.171-0.020 0.6-0.216 0.859-0.393 0.1-0.065 0.268-0.208 0.377-0.316 0.106-0.105 0.2-0.193 0.211-0.193 0.029 0-0.020 0.469-0.066 0.646-0.088 0.344-0.297 0.606-0.605 0.771-0.211 0.111-0.56 0.205-0.768 0.205-0.166 0-0.305 0.054-0.334 0.128-0.040 0.105-0.017 0.233 0.054 0.299 0.066 0.060 0.086 0.063 0.348 0.048 0.463-0.026 0.805-0.139 1.139-0.378l0.211-0.151v0.094c0 0.267-0.217 0.694-0.442 0.871-0.254 0.202-0.659 0.341-0.985 0.341-0.157 0-0.297 0.054-0.325 0.128-0.037 0.102-0.017 0.233 0.049 0.293 0.057 0.051 0.1 0.063 0.274 0.063 0.434 0 0.874-0.139 1.219-0.387l0.211-0.151v0.094c0 0.276-0.234 0.728-0.462 0.891-0.28 0.196-0.648 0.321-0.965 0.321-0.157 0-0.297 0.054-0.325 0.128-0.037 0.102-0.017 0.233 0.049 0.293 0.057 0.054 0.1 0.063 0.294 0.063 0.42 0 0.891-0.156 1.233-0.41l0.177-0.131v0.097c0 0.159-0.108 0.455-0.231 0.64-0.223 0.333-0.717 0.569-1.191 0.572-0.163 0-0.303 0.054-0.331 0.128-0.037 0.102-0.017 0.233 0.049 0.293 0.057 0.054 0.1 0.063 0.294 0.063 0.428 0 0.945-0.174 1.268-0.43l0.146-0.114-0.020 0.108c-0.1 0.543-0.494 0.922-1.085 1.047-0.108 0.023-0.268 0.043-0.357 0.043-0.131 0-0.174 0.014-0.237 0.071-0.106 0.1-0.106 0.27 0.006 0.356 0.071 0.060 0.1 0.063 0.348 0.048 0.148-0.009 0.348-0.037 0.442-0.063 0.234-0.060 0.568-0.222 0.745-0.358 0.080-0.060 0.151-0.111 0.157-0.111 0.011 0-0.003 1.858-0.014 1.872-0.006 0.003-0.625 0.003-1.382 0l-1.373-0.009 0.383-0.612c0.311-0.492 0.385-0.632 0.385-0.714 0-0.213-0.223-0.344-0.411-0.242-0.123 0.065-1.139 1.687-1.153 1.841-0.014 0.131 0.029 0.211 0.137 0.267 0.074 0.037 1.216 0.043 10.26 0.037l10.18-0.009 0.077-0.077c0.151-0.151 0.128-0.216-0.331-0.947-0.405-0.646-0.976-1.556-1.827-2.916-0.24-0.384-0.562-0.896-0.717-1.138s-0.508-0.805-0.785-1.252c-5.644-9.013-6.438-10.265-6.529-10.296-0.103-0.037-0.128-0.037-0.208-0.006z"></path>
<path d="M17.6 6.932c-0.053 0.051-0.728 0.829-1.37 1.588-0.178 0.209-0.331 0.406-0.342 0.434-0.039 0.113 0.033 0.229 0.234 0.367 0.108 0.076 0.195 0.144 0.195 0.155s-0.286 0.313-0.637 0.669c-0.347 0.355-0.65 0.677-0.67 0.714-0.067 0.13 0.019 0.327 0.153 0.341 0.17 0.020 0.186 0.006 0.967-0.784 0.425-0.429 0.792-0.818 0.814-0.86 0.086-0.164 0.008-0.271-0.378-0.53l-0.067-0.045 0.15-0.183c0.083-0.102 0.284-0.336 0.445-0.519 0.887-1.018 0.889-1.024 0.889-1.159 0-0.178-0.253-0.299-0.384-0.186z"></path>
<path d="M6.47 19.855c-0.338 0.055-0.705 0.239-0.946 0.476-0.308 0.303-0.458 0.633-0.485 1.079-0.053 0.842 0.469 1.533 1.309 1.742 0.23 0.055 0.743 0.055 0.979-0.003 0.641-0.154 1.132-0.647 1.265-1.264 0.194-0.917-0.336-1.764-1.251-1.996-0.202-0.052-0.66-0.072-0.871-0.036zM7.197 20.54c0.549 0.193 0.815 0.878 0.563 1.44-0.349 0.771-1.503 0.768-1.861-0.003-0.072-0.154-0.080-0.201-0.078-0.449 0-0.358 0.067-0.531 0.275-0.746 0.227-0.228 0.494-0.325 0.832-0.295 0.092 0.008 0.214 0.030 0.269 0.052z"></path>
<path d="M16.887 19.851l-0.366 0.011v2.001l-0.339-0.419c-0.184-0.228-0.545-0.678-0.804-1.002l-0.465-0.582h-0.647l0.014 1.638c0.008 0.903 0.014 1.652 0.014 1.669-0.003 0.017 0.135 0.028 0.355 0.028 0.198 0 0.358-0.006 0.358-0.014s0-0.439 0.003-0.957c0-0.521 0.011-0.96 0.022-0.979s0.322 0.343 0.817 0.96l0.801 0.991h0.614v-1.683c0-0.923-0.003-1.677-0.006-1.674-0.005 0.003-0.173 0.011-0.372 0.014z"></path>
<path d="M18.344 20.162v0.326l1.051-0.017v1.361c0 1.189 0.006 1.359 0.041 1.359 0.022 0.003 0.194 0.003 0.382 0.003h0.338l0.008-1.359 0.006-1.361h1.051v-0.623l-2.877-0.014v0.325z"></path>
<path d="M0.017 20.621c0.011 0.433 0.020 1.19 0.020 1.68v0.892h0.712l0.006-0.935c0-0.516 0.003-0.952 0-0.974-0.003-0.068 0.057 0.017 0.405 0.592 0.185 0.303 0.393 0.646 0.464 0.756l0.125 0.207h0.359l0.484-0.807 0.484-0.81 0.017 0.558c0.011 0.309 0.020 0.748 0.020 0.977v0.419l0.356 0.009c0.197 0.006 0.359 0 0.365-0.011 0.003-0.014 0.003-0.768-0.003-1.68l-0.006-1.657h-0.65l-0.393 0.657c-0.889 1.496-0.84 1.419-0.877 1.363-0.020-0.028-0.302-0.493-0.627-1.037l-0.593-0.983h-0.687l0.017 0.785z"></path>
<path d="M9.831 20.927c0 0.83 0.011 1.14 0.039 1.287 0.090 0.434 0.328 0.764 0.672 0.931 0.266 0.13 0.437 0.168 0.779 0.168 0.664 0 1.098-0.234 1.339-0.729 0.154-0.315 0.168-0.448 0.168-1.657v-1.090h-0.754l-0.008 1.119c-0.008 1.102-0.008 1.125-0.073 1.267-0.14 0.312-0.359 0.437-0.717 0.414-0.331-0.023-0.507-0.156-0.622-0.471-0.050-0.133-0.053-0.229-0.045-1.238l0.008-1.090h-0.787v1.090z"></path>
<path d="M23.073 20.072c-0.057 0.128-0.151 0.335-0.205 0.459-0.057 0.125-0.341 0.768-0.637 1.432s-0.534 1.208-0.531 1.213c0.003 0.003 0.182 0.009 0.398 0.011l0.392 0.006 0.29-0.72h1.563l0.145 0.357 0.145 0.354h0.344c0.19 0 0.378 0 0.415-0.003 0.063 0 0.037-0.062-0.449-1.157-0.284-0.635-0.62-1.386-0.742-1.67l-0.227-0.516-0.398-0.003h-0.398l-0.105 0.235zM23.898 21.402l0.199 0.476h-0.523c-0.287 0-0.523-0.006-0.523-0.011 0-0.011 0.338-0.831 0.469-1.137l0.048-0.111 0.065 0.153c0.034 0.085 0.153 0.369 0.264 0.629z"></path>
<path d="M26.389 21.514l0.015 1.68 0.312-0.003c0.173-0.003 0.33-0.006 0.348-0.006 0.023 0 0.031-0.355 0.031-1.674v-1.674h-0.719l0.013 1.677z"></path>
<path d="M28.534 21.508v1.671l0.315 0.003c0.174 0.003 0.349 0.003 0.389 0.006l0.072 0.003v-0.98c-0.003-0.541 0.009-0.989 0.020-0.994 0.011-0.009 0.395 0.433 0.849 0.98l0.829 0.992 0.643 0.006v-3.357h-0.772l-0.006 1.003-0.009 1.003-0.343-0.411c-0.189-0.227-0.415-0.499-0.5-0.603s-0.292-0.351-0.458-0.552c-0.166-0.198-0.312-0.38-0.323-0.399-0.017-0.031-0.103-0.040-0.363-0.040h-0.343v1.671z"></path>
<path d="M15.626 25.249c-0.322 0.067-0.591 0.278-0.692 0.544-0.174 0.452 0 0.924 0.417 1.15 0.151 0.081 0.18 0.087 0.485 0.087s0.337-0.006 0.503-0.087l0.177-0.090 0.009-0.353 0.009-0.353h-0.269v0.582l-0.095 0.041c-0.375 0.151-0.804 0.015-0.973-0.31-0.148-0.284-0.089-0.602 0.151-0.814 0.266-0.235 0.636-0.261 0.931-0.061l0.109 0.072 0.077-0.078 0.080-0.075-0.101-0.084c-0.18-0.148-0.559-0.226-0.819-0.171z"></path>
<path d="M18.872 25.248c-0.291 0.057-0.561 0.244-0.689 0.473-0.088 0.16-0.106 0.53-0.039 0.725 0.14 0.395 0.616 0.645 1.098 0.573 0.179-0.026 0.428-0.132 0.498-0.209 0.036-0.040 0.030-0.057-0.036-0.12l-0.076-0.072-0.121 0.074c-0.461 0.289-1.077 0.032-1.15-0.478-0.046-0.309 0.173-0.636 0.482-0.722 0.261-0.072 0.464-0.046 0.674 0.089l0.115 0.072 0.079-0.072 0.076-0.072-0.070-0.072c-0.149-0.152-0.561-0.243-0.84-0.189z"></path>
<path d="M6.114 26.132v0.898l0.231-0.017 0.008-0.4 0.008-0.397h0.947v0.811h0.244v-1.795h-0.244v0.773l-0.95 0.012v-0.785h-0.244v0.901z"></path>
<path d="M8.401 26.121l0.012 0.892 0.34 0.017v-1.798h-0.36l0.008 0.889z"></path>
<path d="M9.477 26.124l0.009 0.889 0.247 0.017v-0.482l0.154-0.15c0.084-0.084 0.16-0.15 0.171-0.15 0.009 0 0.171 0.176 0.357 0.39l0.34 0.39h0.145c0.078 0 0.137-0.012 0.128-0.023-0.006-0.012-0.189-0.237-0.407-0.496l-0.392-0.471 0.378-0.393 0.381-0.393-0.142-0.009-0.139-0.012-0.485 0.502-0.485 0.499-0.003-0.499v-0.497h-0.262l0.006 0.886z"></path>
<path d="M11.635 26.121l0.008 0.892 0.226 0.017v-1.798h-0.24l0.005 0.889z"></path>
<path d="M12.714 26.121l0.009 0.892 0.25 0.017v-1.341l0.156 0.188c0.082 0.101 0.329 0.403 0.547 0.669 0.368 0.449 0.403 0.481 0.494 0.481h0.097v-1.795h-0.235v0.652c0 0.359-0.009 0.652-0.021 0.652-0.015 0-0.262-0.292-0.553-0.652-0.521-0.64-0.532-0.652-0.641-0.652h-0.109l0.006 0.889z"></path>
<path d="M20.382 26.131v0.899h1.199v-0.232h-0.942v-1.566h-0.257v0.899z"></path>
<path d="M22.18 25.848c0 0.692 0.022 0.811 0.174 0.976 0.124 0.136 0.287 0.203 0.493 0.206 0.35 0.006 0.543-0.098 0.67-0.365l0.083-0.174 0.008-0.631 0.011-0.628h-0.254v0.599c0 0.521-0.008 0.617-0.052 0.718-0.069 0.159-0.135 0.214-0.309 0.252-0.292 0.061-0.518-0.078-0.573-0.353-0.017-0.081-0.030-0.388-0.030-0.68v-0.536h-0.221v0.617z"></path>
<path d="M24.458 26.131v0.899h0.43c0.622 0 0.841-0.058 0.952-0.252 0.070-0.119 0.076-0.335 0.014-0.463-0.041-0.090-0.173-0.211-0.227-0.211-0.016 0 0.014-0.043 0.062-0.095 0.149-0.159 0.16-0.422 0.027-0.578-0.143-0.165-0.2-0.179-0.749-0.188l-0.508-0.012v0.899zM25.405 25.486c0.124 0.055 0.162 0.113 0.162 0.249-0.003 0.211-0.146 0.283-0.568 0.283h-0.297v-0.578h0.297c0.211 0 0.327 0.014 0.406 0.046zM25.502 26.264c0.124 0.055 0.181 0.194 0.143 0.344-0.043 0.162-0.133 0.197-0.571 0.214l-0.373 0.014v-0.616h0.352c0.249 0 0.381 0.012 0.449 0.043z"></path>
<path d="M12.935 29.677c-0.122 0.029-0.148 0.293-0.031 0.335 0.026 0.008 1.776 0.016 3.894 0.016h3.846l0.051-0.055c0.063-0.074 0.063-0.161-0.006-0.237l-0.054-0.063-3.826-0.003c-2.101-0.003-3.846 0-3.874 0.008z"></path>
</symbol>
<symbol id="search-icon" viewBox="0 0 32 32">
<path d="M14.68 26.693c6.635 0 12.013-5.379 12.013-12.013s-5.379-12.013-12.013-12.013c-6.635 0-12.013 5.379-12.013 12.013s5.379 12.013 12.013 12.013z"></path>
<path d="M29.32 25.267c-0.44-0.813-1.373-1.267-2.627-1.267-0.947 0-1.76 0.387-2.24 1.053s-0.587 1.56-0.293 2.453c0.573 1.733 1.573 2.12 2.12 2.187 0.080 0.013 0.16 0.013 0.253 0.013 0.587 0 1.493-0.253 2.373-1.573 0.707-1.027 0.84-2.053 0.413-2.867z"></path>
</symbol>
<symbol id="select-icon" viewBox="0 0 32 32">
<path d="M28.4 10.107h-7.44c-0.52 0-0.933-0.413-0.933-0.933s0.413-0.933 0.933-0.933h7.44c0.52 0 0.933 0.413 0.933 0.933s-0.413 0.933-0.933 0.933z"></path>
<path d="M8.56 10.107h-4.96c-0.52 0-0.933-0.413-0.933-0.933s0.413-0.933 0.933-0.933h4.96c0.52 0 0.933 0.413 0.933 0.933s-0.427 0.933-0.933 0.933z"></path>
<path d="M13.52 14.44c2.909 0 5.267-2.358 5.267-5.267s-2.358-5.267-5.267-5.267c-2.909 0-5.267 2.358-5.267 5.267s2.358 5.267 5.267 5.267z"></path>
<path d="M28.4 23.747h-4.96c-0.52 0-0.933-0.413-0.933-0.933s0.413-0.933 0.933-0.933h4.96c0.52 0 0.933 0.413 0.933 0.933s-0.413 0.933-0.933 0.933z"></path>
<path d="M11.040 23.747h-7.44c-0.52 0-0.933-0.413-0.933-0.933s0.413-0.933 0.933-0.933h7.44c0.52 0 0.933 0.413 0.933 0.933s-0.427 0.933-0.933 0.933z"></path>
<path d="M18.48 28.093c2.909 0 5.267-2.358 5.267-5.267s-2.358-5.267-5.267-5.267c-2.909 0-5.267 2.358-5.267 5.267s2.358 5.267 5.267 5.267z"></path>
</symbol>
<symbol id="location-icon" viewBox="0 0 32 32">
<path d="M27.493 11.267c-1.4-6.16-6.773-8.933-11.493-8.933 0 0 0 0-0.013 0-4.707 0-10.093 2.76-11.493 8.92-1.56 6.88 2.653 12.707 6.467 16.373 1.413 1.36 3.227 2.040 5.040 2.040s3.627-0.68 5.027-2.040c3.813-3.667 8.027-9.48 6.467-16.36zM16 17.947c-2.32 0-4.2-1.88-4.2-4.2s1.88-4.2 4.2-4.2c2.32 0 4.2 1.88 4.2 4.2s-1.88 4.2-4.2 4.2z"></path>
</symbol>
<symbol id="notification-icon" viewBox="0 0 32 32">
<path d="M26.92 18.747l-1.507-2.507c-0.333-0.547-0.627-1.6-0.627-2.24v-2.493c0-4.84-3.933-8.773-8.76-8.773-4.84 0.013-8.773 3.933-8.773 8.773v2.48c0 0.64-0.293 1.693-0.613 2.24l-1.507 2.507c-0.573 0.973-0.707 2.080-0.347 3.040 0.36 0.973 1.173 1.747 2.24 2.093 1.44 0.48 2.893 0.827 4.373 1.080 0.147 0.027 0.293 0.040 0.44 0.067 0.187 0.027 0.387 0.053 0.587 0.080 0.347 0.053 0.693 0.093 1.053 0.12 0.84 0.080 1.693 0.12 2.547 0.12 0.84 0 1.68-0.040 2.507-0.12 0.307-0.027 0.613-0.053 0.907-0.093 0.24-0.027 0.48-0.053 0.72-0.093 0.147-0.013 0.293-0.040 0.44-0.067 1.493-0.24 2.973-0.613 4.413-1.093 1.027-0.347 1.813-1.12 2.187-2.107 0.373-1 0.267-2.093-0.28-3.013zM17 13.333c0 0.56-0.453 1.013-1.013 1.013s-1.013-0.453-1.013-1.013v-4.133c0-0.56 0.453-1.013 1.013-1.013s1.013 0.453 1.013 1.013v4.133z"></path>
<path d="M19.773 26.68c-0.56 1.547-2.040 2.653-3.773 2.653-1.053 0-2.093-0.427-2.827-1.187-0.427-0.4-0.747-0.933-0.933-1.48 0.173 0.027 0.347 0.040 0.533 0.067 0.307 0.040 0.627 0.080 0.947 0.107 0.76 0.067 1.533 0.107 2.307 0.107 0.76 0 1.52-0.040 2.267-0.107 0.28-0.027 0.56-0.040 0.827-0.080 0.213-0.027 0.427-0.053 0.653-0.080z"></path>
</symbol>
<symbol id="home-icon" viewBox="0 0 32 32">
<path d="M15.175 0.072c-0.775 0.256-0.625 0.113-7.71 7.185-3.727 3.721-6.866 6.91-6.985 7.085-0.475 0.707-0.613 1.782-0.344 2.595 0.406 1.207 1.369 1.92 2.751 2.032l0.494 0.044 0.019 5.102c0.019 5.002 0.025 5.109 0.15 5.446 0.469 1.238 1.251 2.001 2.395 2.339 0.294 0.088 0.763 0.1 3.345 0.1 2.889 0 3.014-0.006 3.214-0.125 0.113-0.069 0.256-0.213 0.325-0.325 0.119-0.2 0.125-0.325 0.125-4.177 0-2.708 0.025-4.052 0.069-4.221 0.106-0.375 0.4-0.757 0.732-0.951l0.294-0.175h3.952l0.306 0.188c0.344 0.213 0.669 0.694 0.738 1.075 0.019 0.131 0.038 1.989 0.038 4.133 0 4.221-0.012 4.058 0.344 4.39l0.169 0.156 3.008 0.019c2.013 0.012 3.12-0.006 3.339-0.050 0.863-0.181 1.863-0.944 2.257-1.72 0.438-0.875 0.413-0.519 0.438-6.134l0.019-5.078 0.513-0.044c1.257-0.106 2.082-0.657 2.601-1.72 0.219-0.463 0.225-0.481 0.225-1.251 0-0.775 0-0.788-0.238-1.282-0.238-0.5-0.244-0.506-7.097-7.36-6.859-6.86-6.859-6.86-7.36-7.097-0.475-0.225-0.538-0.238-1.188-0.25-0.444-0.013-0.775 0.013-0.938 0.069z"></path>
</symbol>
<symbol id="notes-icon" viewBox="0 0 32 32">
<path d="M16.903 26.609c0.366 0.085 0.4 0.565 0.043 0.684l-2.107 0.693c-5.293 1.707-8.080 0.28-9.8-5.013l-1.707-5.267c-1.707-5.293-0.293-8.093 5-9.8l0.699-0.231c0.537-0.178 1.060 0.361 0.907 0.906-0.076 0.27-0.148 0.552-0.219 0.846l-1.307 5.587c-1.467 6.28 0.68 9.747 6.96 11.24l1.53 0.356z"></path>
<path d="M22.894 4.28l-2.227-0.52c-4.453-1.053-7.107-0.187-8.667 3.040-0.4 0.813-0.72 1.8-0.987 2.933l-1.307 5.587c-1.307 5.573 0.413 8.32 5.973 9.64l2.24 0.533c0.773 0.187 1.493 0.307 2.16 0.36 4.16 0.4 6.373-1.547 7.493-6.36l1.307-5.573c1.307-5.573-0.4-8.333-5.987-9.64zM20.387 17.773c-0.12 0.453-0.52 0.747-0.973 0.747-0.080 0-0.16-0.013-0.253-0.027l-3.88-0.987c-0.533-0.133-0.853-0.68-0.72-1.213s0.68-0.853 1.213-0.72l3.88 0.987c0.547 0.133 0.867 0.68 0.733 1.213zM24.294 13.267c-0.12 0.453-0.52 0.747-0.973 0.747-0.080 0-0.16-0.013-0.253-0.027l-6.467-1.64c-0.533-0.133-0.853-0.68-0.72-1.213s0.68-0.853 1.213-0.72l6.467 1.64c0.547 0.12 0.867 0.667 0.733 1.213z"></path>
</symbol>
<symbol id="theme-icon" viewBox="0 0 32 32">
<path d="M28.707 21.24c-0.213-0.36-0.813-0.92-2.307-0.653-0.827 0.147-1.667 0.213-2.507 0.173-3.107-0.133-5.92-1.56-7.88-3.76-1.733-1.933-2.8-4.453-2.813-7.173 0-1.52 0.293-2.987 0.893-4.373 0.587-1.347 0.173-2.053-0.12-2.347-0.307-0.307-1.027-0.733-2.44-0.147-5.453 2.293-8.827 7.76-8.427 13.613 0.4 5.507 4.267 10.213 9.387 11.987 1.227 0.427 2.52 0.68 3.853 0.733 0.213 0.013 0.427 0.027 0.64 0.027 4.467 0 8.653-2.107 11.293-5.693 0.893-1.24 0.653-2.027 0.427-2.387z"></path>
</symbol>
<symbol id="account-icon" viewBox="0 0 32 32">
<path d="M12 2.667c-3.493 0-6.333 2.84-6.333 6.333 0 3.427 2.68 6.2 6.173 6.32 0.107-0.013 0.213-0.013 0.293 0 0.027 0 0.040 0 0.067 0 0.013 0 0.013 0 0.027 0 3.413-0.12 6.093-2.893 6.107-6.32 0-3.493-2.84-6.333-6.333-6.333z"></path>
<path d="M18.773 18.867c-3.72-2.48-9.787-2.48-13.533 0-1.693 1.133-2.627 2.667-2.627 4.307s0.933 3.16 2.613 4.28c1.867 1.253 4.32 1.88 6.773 1.88s4.907-0.627 6.773-1.88c1.68-1.133 2.613-2.653 2.613-4.307-0.013-1.64-0.933-3.16-2.613-4.28z"></path>
<path d="M26.653 9.787c0.213 2.587-1.627 4.853-4.173 5.16-0.013 0-0.013 0-0.027 0h-0.040c-0.080 0-0.16 0-0.227 0.027-1.293 0.067-2.48-0.347-3.373-1.107 1.373-1.227 2.16-3.067 2-5.067-0.093-1.080-0.467-2.067-1.027-2.907 0.507-0.253 1.093-0.413 1.693-0.467 2.613-0.227 4.947 1.72 5.173 4.36z"></path>
<path d="M29.32 22.12c-0.107 1.293-0.933 2.413-2.32 3.173-1.333 0.733-3.013 1.080-4.68 1.040 0.96-0.867 1.52-1.947 1.627-3.093 0.133-1.653-0.653-3.24-2.227-4.507-0.893-0.707-1.933-1.267-3.067-1.68 2.947-0.853 6.653-0.28 8.933 1.56 1.227 0.987 1.853 2.227 1.733 3.507z"></path>
</symbol>
<symbol id="explore-icon" viewBox="0 0 32 32">
<path d="M19.787 14.533l7.547-5.053c0.76-0.507 0.96-1.547 0.453-2.293l-2.427-3.613c-0.507-0.76-1.547-0.96-2.293-0.453l-7.547 5.053 4.267 6.36z"></path>
<path d="M19.36 13.893l-6.373 4.267-0.213-0.32-3.2-4.773 6.373-4.267 3.413 5.093z"></path>
<path d="M7.52 21.36l5.267-3.52-2.987-4.453-5.267 3.52c-0.613 0.413-0.773 1.24-0.36 1.853l1.507 2.24c0.4 0.613 1.227 0.773 1.84 0.36z"></path>
<path d="M22.080 29.080c-0.133 0.053-0.28 0.093-0.413 0.093-0.387 0-0.747-0.227-0.92-0.6l-4.973-10.987-5.040 11c-0.173 0.36-0.533 0.587-0.92 0.587-0.133 0-0.28-0.040-0.413-0.093-0.493-0.24-0.72-0.827-0.493-1.333l4.547-9.893 3.56-2.387 5.56 12.293c0.227 0.493 0 1.093-0.493 1.32z"></path>
</symbol>
<symbol id="graph-icon" viewBox="0 0 32 32">
<path d="M28.894 9.267c-0.853-2.893-3.267-5.307-6.16-6.16-2.2-0.64-3.72-0.587-4.773 0.2-1.267 0.947-1.413 2.653-1.413 3.867v3.32c0 3.28 1.493 4.947 4.427 4.947h3.827c1.2 0 2.92-0.147 3.867-1.413 0.813-1.040 0.88-2.56 0.227-4.76z"></path>
<path d="M25.213 17.813c-0.347-0.4-0.853-0.627-1.373-0.627h-4.773c-2.347 0-4.253-1.907-4.253-4.253v-4.773c0-0.52-0.227-1.027-0.627-1.373-0.387-0.347-0.92-0.507-1.427-0.44-3.133 0.4-6.013 2.12-7.893 4.707-1.893 2.6-2.587 5.773-1.987 8.947 0.867 4.587 4.533 8.253 9.133 9.12 0.733 0.147 1.467 0.213 2.2 0.213 2.413 0 4.747-0.747 6.733-2.2 2.587-1.88 4.307-4.76 4.707-7.893 0.067-0.52-0.093-1.040-0.44-1.427z"></path>
</symbol>
<symbol id="message-icon" viewBox="0 0 32 32">
<path d="M22.667 4h-13.333c-4 0-6.667 2-6.667 6.667v9.333c0 4.667 2.667 6.667 6.667 6.667h4.76c0.787 0 1.427-0.693 1.32-1.48-0.133-0.947-0.107-1.933 0.093-2.947 0.707-3.467 3.56-6.227 7.053-6.8 1.747-0.28 3.413-0.040 4.88 0.6 0.893 0.387 1.893-0.227 1.893-1.2v-4.173c0-4.667-2.667-6.667-6.667-6.667zM23.293 11.453l-4.173 3.333c-0.88 0.707-2 1.053-3.12 1.053s-2.253-0.347-3.12-1.053l-4.173-3.333c-0.427-0.347-0.493-0.973-0.16-1.413 0.347-0.427 0.973-0.507 1.4-0.16l4.173 3.333c1.013 0.813 2.733 0.813 3.747 0l4.173-3.333c0.427-0.347 1.067-0.28 1.4 0.16 0.347 0.44 0.28 1.067-0.147 1.413z"></path>
<path d="M24 17.333c-3.68 0-6.667 2.973-6.667 6.667 0 3.68 2.987 6.667 6.667 6.667 3.693 0 6.667-2.987 6.667-6.667 0-3.693-2.973-6.667-6.667-6.667zM26.733 23.4l-0.493 0.48-2.907 2.92c-0.133 0.12-0.387 0.253-0.573 0.28l-1.307 0.187c-0.467 0.067-0.8-0.267-0.733-0.733l0.187-1.307c0.027-0.187 0.147-0.44 0.28-0.573l2.907-2.893 0.48-0.493c0.32-0.32 0.68-0.533 1.053-0.533 0.32 0 0.68 0.147 1.080 0.533 0.893 0.867 0.613 1.547 0.027 2.133z"></path>
</symbol>
<symbol id="setting-icon" viewBox="0 0 32 32">
<path d="M26.8 12.293c-2.413 0-3.4-1.707-2.2-3.8 0.693-1.213 0.28-2.76-0.933-3.453l-2.307-1.32c-1.053-0.627-2.413-0.253-3.040 0.8l-0.147 0.253c-1.2 2.093-3.173 2.093-4.387 0l-0.147-0.253c-0.6-1.053-1.96-1.427-3.013-0.8l-2.307 1.32c-1.213 0.693-1.627 2.253-0.933 3.467 1.213 2.080 0.227 3.787-2.187 3.787-1.387 0-2.533 1.133-2.533 2.533v2.347c0 1.387 1.133 2.533 2.533 2.533 2.413 0 3.4 1.707 2.187 3.8-0.693 1.213-0.28 2.76 0.933 3.453l2.307 1.32c1.053 0.627 2.413 0.253 3.040-0.8l0.147-0.253c1.2-2.093 3.173-2.093 4.387 0l0.147 0.253c0.627 1.053 1.987 1.427 3.040 0.8l2.307-1.32c1.213-0.693 1.627-2.253 0.933-3.453-1.213-2.093-0.227-3.8 2.187-3.8 1.387 0 2.533-1.133 2.533-2.533v-2.347c-0.013-1.387-1.147-2.533-2.547-2.533zM16 20.333c-2.387 0-4.333-1.947-4.333-4.333s1.947-4.333 4.333-4.333c2.387 0 4.333 1.947 4.333 4.333s-1.947 4.333-4.333 4.333z"></path>
</symbol>
<symbol id="signout-icon" viewBox="0 0 32 32">
<path d="M9.6 29.333h3.467c4.267 0 6.933-2.667 6.933-6.933v-5.4h-8.333c-0.547 0-1-0.453-1-1s0.453-1 1-1h8.333v-5.4c0-4.267-2.667-6.933-6.933-6.933h-3.453c-4.267 0-6.933 2.667-6.933 6.933v12.8c-0.013 4.267 2.653 6.933 6.92 6.933z"></path>
<path d="M25.92 17l-2.76 2.76c-0.2 0.2-0.293 0.453-0.293 0.707s0.093 0.52 0.293 0.707c0.387 0.387 1.027 0.387 1.413 0l4.467-4.467c0.387-0.387 0.387-1.027 0-1.413l-4.467-4.467c-0.387-0.387-1.027-0.387-1.413 0s-0.387 1.027 0 1.413l2.76 2.76h-5.92v2h5.92z"></path>
</symbol>
<symbol id="like-icon" viewBox="0 0 32 32">
<path d="M21.92 4.133c-2.413 0-4.573 1.173-5.92 2.973-1.347-1.8-3.507-2.973-5.92-2.973-4.093 0-7.413 3.333-7.413 7.453 0 1.587 0.253 3.053 0.693 4.413 2.107 6.667 8.6 10.653 11.813 11.747 0.453 0.16 1.2 0.16 1.653 0 3.213-1.093 9.707-5.080 11.813-11.747 0.44-1.36 0.693-2.827 0.693-4.413 0-4.12-3.32-7.453-7.413-7.453z"></path>
</symbol>
<symbol id="star-icon" viewBox="0 0 32 32">
<path d="M18.78 2.313l2.82 5.678c0.38 0.785 1.4 1.53 2.26 1.691l5.1 0.846c3.26 0.544 4.020 2.92 1.68 5.296l-3.98 4.007c-0.66 0.664-1.040 1.973-0.82 2.92l1.14 4.953c0.9 3.906-1.18 5.437-4.6 3.383l-4.78-2.859c-0.86-0.524-2.3-0.524-3.16 0l-4.78 2.859c-3.42 2.034-5.5 0.524-4.6-3.383l1.14-4.953c0.18-0.966-0.2-2.275-0.86-2.94l-3.98-4.007c-2.34-2.356-1.58-4.732 1.68-5.296l5.1-0.846c0.86-0.141 1.88-0.906 2.26-1.691l2.82-5.678c1.54-3.061 4.020-3.061 5.56 0.020z"></path>
</symbol>
<symbol id="book-icon" viewBox="0 0 32 32">
<path d="M15 8v18.547c0 0.947-0.96 1.6-1.827 1.24-2.48-1.040-5.56-1.947-7.747-2.24l-0.413-0.053c-1.293-0.16-2.347-1.347-2.347-2.64v-15.853c0-1.6 1.293-2.893 2.893-2.893h0.093c2.507 0.213 6.2 1.387 8.64 2.707 0.44 0.24 0.707 0.68 0.707 1.187z"></path>
<path d="M26.44 4.107h-0.080c-0.32 0.027-0.667 0.067-1.027 0.133-1.64 0.267-3.587 0.827-5.333 1.52-0.827 0.333-1.6 0.693-2.28 1.053-0.44 0.24-0.72 0.693-0.72 1.187v18.547c0 0.947 0.96 1.6 1.827 1.24 2.48-1.040 5.56-1.947 7.747-2.24l0.413-0.053c1.293-0.16 2.347-1.347 2.347-2.64v-15.853c0-1.6-1.293-2.893-2.893-2.893zM25.693 18.307c0 0.52-0.373 0.747-0.827 0.493l-1.413-0.787c-0.147-0.080-0.387-0.080-0.547 0l-1.413 0.787c-0.453 0.253-0.827 0.027-0.827-0.493v-4.093c0-0.613 0.507-1.12 1.12-1.12h2.8c0.613 0 1.12 0.507 1.12 1.12v4.093h-0.013z"></path>
</symbol>
<symbol id="vector-icon" viewBox="0 0 32 32">
<path d="M9.108 0c0.457 0 0.895 0.187 1.218 0.521s0.505 0.786 0.505 1.257v28.445c0 0.471-0.182 0.924-0.505 1.257s-0.761 0.521-1.218 0.521-0.895-0.187-1.218-0.521c-0.323-0.334-0.505-0.786-0.505-1.257v-28.445c0-0.472 0.182-0.924 0.505-1.257s0.761-0.521 1.218-0.521zM22.892 0c0.457 0 0.895 0.187 1.218 0.521s0.505 0.786 0.505 1.257v28.445c0 0.471-0.182 0.924-0.505 1.257s-0.761 0.521-1.218 0.521-0.895-0.187-1.218-0.521c-0.323-0.334-0.505-0.786-0.505-1.257v-28.445c0-0.472 0.182-0.924 0.505-1.257s0.761-0.521 1.218-0.521z"></path>
</symbol>
</defs>
</svg>
