<svg aria-hidden="true" style="position: absolute; width: 0; height: 0; overflow: hidden;" version="1.1" xmlns="http://www.w3.org/2000/svg" xmlns:xlink="http://www.w3.org/1999/xlink">
<defs>
<symbol id="icon-logo" viewBox="0 0 29 32">
<path fill="#F35F2F" d="M14.16 21.389c-0.861 0.004-1.711-0.205-2.48-0.609s-1.435-0.992-1.943-1.715l-3.542 2.116c0.135 0.162 0.294 0.299 0.472 0.406l6.303 3.779c0.368 0.196 0.776 0.298 1.19 0.298s0.821-0.102 1.19-0.298l6.303-3.779c0.178-0.107 0.337-0.245 0.472-0.406l-3.533-2.154c-0.505 0.732-1.171 1.328-1.942 1.738s-1.624 0.625-2.491 0.624z"></path>
<path fill="#F35F2F" d="M8.615 15.686c0.003-1.344 0.525-2.639 1.467-3.639s2.236-1.633 3.636-1.78v-4.073c-0.212 0.042-0.417 0.115-0.606 0.217l-6.571 3.612c-0.357 0.228-0.654 0.532-0.868 0.887s-0.338 0.754-0.363 1.163v7.224c0.003 0.208 0.038 0.415 0.104 0.614l3.692-2.032c-0.323-0.691-0.491-1.438-0.492-2.194z"></path>
<path fill="#F35F2F" d="M21.843 10.021l-6.225-3.61c-0.179-0.101-0.373-0.175-0.574-0.217v4.061c0.846 0.096 1.657 0.391 2.369 0.861s1.304 1.101 1.729 1.843c0.425 0.742 0.671 1.574 0.718 2.429s-0.106 1.709-0.447 2.494l3.498 2.030c0.063-0.199 0.096-0.405 0.099-0.614v-7.22c-0.023-0.41-0.14-0.81-0.342-1.167s-0.484-0.662-0.824-0.891z"></path>
<path fill="#F35F2F" d="M26.378 6.403l-10.276-5.943c-0.603-0.303-1.268-0.46-1.942-0.46s-1.339 0.158-1.942 0.46l-10.276 5.943c-0.564 0.368-1.034 0.864-1.371 1.447s-0.533 1.238-0.571 1.911v11.886c0.037 0.674 0.232 1.33 0.57 1.915s0.807 1.082 1.372 1.452l10.276 5.943c0.603 0.303 1.268 0.46 1.942 0.46s1.339-0.158 1.942-0.46l10.276-5.943c0.565-0.369 1.035-0.867 1.372-1.452s0.532-1.241 0.57-1.915v-11.886c-0.038-0.673-0.234-1.327-0.571-1.911s-0.807-1.079-1.371-1.447zM25.058 20.28c-0.030 0.518-0.181 1.022-0.441 1.471s-0.621 0.831-1.055 1.115l-7.916 4.576c-0.462 0.234-0.973 0.356-1.491 0.356s-1.029-0.122-1.491-0.356l-7.907-4.576c-0.434-0.284-0.795-0.666-1.055-1.115s-0.411-0.953-0.441-1.471v-9.142c0.030-0.518 0.181-1.022 0.441-1.471s0.621-0.831 1.055-1.115l7.897-4.576c0.462-0.234 0.973-0.356 1.491-0.356s1.029 0.122 1.491 0.356l7.916 4.576c0.436 0.283 0.799 0.664 1.060 1.113s0.414 0.953 0.445 1.472v9.142z"></path>
<path fill="#F35F2F" d="M10.176 15.708c0 0.744 0.234 1.471 0.671 2.090s1.060 1.101 1.787 1.385c0.728 0.285 1.528 0.359 2.301 0.214s1.482-0.503 2.039-1.029c0.557-0.526 0.936-1.196 1.090-1.926s0.075-1.486-0.227-2.173c-0.301-0.687-0.812-1.275-1.467-1.688s-1.425-0.634-2.213-0.634c-1.056 0-2.069 0.396-2.816 1.102s-1.166 1.662-1.166 2.66z"></path>
</symbol>
<symbol id="icon-service-1" viewBox="0 0 36 32">
<path fill="#79e28a" style="fill: var(--color1, #79e28a)" d="M5.333 0h24.774c2.946 0 5.333 2.388 5.333 5.333v21.333c0 2.946-2.388 5.333-5.333 5.333h-24.774c-2.946 0-5.333-2.388-5.333-5.333v-21.333c0-2.946 2.388-5.333 5.333-5.333z"></path>
<path fill="#fff" style="fill: var(--color2, #fff)" d="M17.434 4.968c-2.381 2.386-3.714 5.724-3.655 9.161v1.201h-1.277l-1.353 2.417-0 3.004 2.766 0 0.657 1.894h0.815l0 1.994h0.942v-1.994l0.964 0-0 4.223h0.942v-4.223h0.964v1.994h0.942v-1.994l0.815 0 0.657-1.894h2.766l0-3.003-1.349-2.417-1.28 0v-1.201c0.030-1.636-0.27-3.316-0.866-4.859-1.134-2.931-2.924-4.403-3.117-4.636l-0.333 0.334zM12.092 17.992l0.963-1.72 0.725-0-0 3.536-1.688-0v-1.816zM20.288 21.702l-5.045-0-0.33-0.952 5.706-0-0.331 0.952zM22.479 16.272l0.96 1.72-0 1.816h-1.688v-3.536l0.727-0zM20.81 14.116v1.214h-0v4.478l-6.088 0c0-0.449 0-4.045 0-4.478 0-0.14 0 0.476-0-1.213-0.052-3.020 1.053-5.956 3.046-8.134 1.995 2.179 3.099 5.116 3.042 8.133z"></path>
<path fill="#fff" style="fill: var(--color2, #fff)" d="M19.914 13.193c0-1.185-0.963-2.15-2.147-2.15-0.573 0-1.112 0.223-1.517 0.629-0.838 0.838-0.844 2.194-0.001 3.036 0.406 0.406 0.945 0.629 1.518 0.629 1.173-0 2.147-0.955 2.147-2.145zM16.915 12.339c0.228-0.228 0.53-0.353 0.851-0.353 0.665 0 1.205 0.542 1.205 1.208 0 0.319-0.126 0.62-0.354 0.848-0.477 0.477-1.235 0.47-1.704 0.001-0.228-0.228-0.466-1.237 0.001-1.704z"></path>
</symbol>
<symbol id="icon-service-2" viewBox="0 0 35 32">
<path fill="#60daff" style="fill: var(--color3, #60daff)" d="M7.736 0h19.58c4.273 0 7.736 3.464 7.736 7.736v16.177c0 4.273-3.464 7.736-7.736 7.736h-19.58c-4.273 0-7.736-3.464-7.736-7.736v-16.177c0-4.273 3.464-7.736 7.736-7.736z"></path>
<path fill="#fff" style="fill: var(--color2, #fff)" d="M17.582 14.141c1.647 0 2.988-1.34 2.988-2.988s-1.34-2.988-2.988-2.988-2.988 1.34-2.988 2.988c0 1.647 1.34 2.988 2.988 2.988zM17.582 9.196c1.079 0 1.957 0.878 1.957 1.957s-0.878 1.957-1.957 1.957-1.957-0.878-1.957-1.957c0-1.079 0.878-1.957 1.957-1.957z"></path>
<path fill="#fff" style="fill: var(--color2, #fff)" d="M23.626 14.141c1.041 0 1.889-0.847 1.889-1.889s-0.847-1.889-1.889-1.889-1.889 0.847-1.889 1.889c0 1.041 0.847 1.889 1.889 1.889zM23.626 11.394c0.473 0 0.858 0.385 0.858 0.859s-0.385 0.858-0.858 0.858-0.858-0.385-0.858-0.858c0-0.473 0.385-0.859 0.858-0.859z"></path>
<path fill="#fff" style="fill: var(--color2, #fff)" d="M24.042 15.309h-0.797c-0.939 0-1.749 0.555-2.119 1.351-0.76-0.83-1.852-1.351-3.064-1.351h-0.96c-1.212 0-2.304 0.521-3.064 1.351-0.369-0.797-1.18-1.351-2.119-1.351h-0.797c-1.286 0-2.332 1.040-2.332 2.318v3.75c0 0.555 0.453 1.006 1.010 1.006h3.15c0.053 0.615 0.57 1.099 1.198 1.099h6.867c0.628 0 1.145-0.484 1.198-1.099h3.114c0.577 0 1.046-0.467 1.046-1.042v-3.715c-0-1.278-1.046-2.318-2.332-2.318zM9.821 17.627c0-0.71 0.584-1.287 1.302-1.287h0.797c0.718 0 1.302 0.578 1.302 1.287v0.353c-0.346 0.902-0.275 1.442-0.275 3.374h-3.125v-3.726zM21.188 22.279c0 0.095-0.077 0.172-0.172 0.172h-6.867c-0.095 0-0.172-0.077-0.172-0.172v-2.814c0-1.724 1.402-3.126 3.126-3.126h0.96c1.724 0 3.126 1.402 3.126 3.126v2.814zM25.343 21.341c0 0.018 0.192 0.012-3.125 0.012 0-1.945 0.071-2.473-0.275-3.374v-0.353c0-0.71 0.584-1.287 1.302-1.287h0.797c0.718 0 1.302 0.578 1.302 1.287v3.715z"></path>
<path fill="#fff" style="fill: var(--color2, #fff)" d="M11.538 14.141c1.041 0 1.889-0.847 1.889-1.889s-0.847-1.889-1.889-1.889-1.889 0.847-1.889 1.889c0 1.041 0.847 1.889 1.889 1.889zM11.538 11.394c0.473 0 0.858 0.385 0.858 0.859s-0.385 0.858-0.858 0.858-0.858-0.385-0.858-0.858c0-0.473 0.385-0.859 0.858-0.859z"></path>
</symbol>
<symbol id="icon-service-3" viewBox="0 0 35 32">
<path fill="#f37168" style="fill: var(--color4, #f37168)" d="M7.736 0h19.58c4.273 0 7.736 3.464 7.736 7.736v16.177c0 4.273-3.464 7.736-7.736 7.736h-19.58c-4.273 0-7.736-3.464-7.736-7.736v-16.177c0-4.273 3.464-7.736 7.736-7.736z"></path>
<path fill="#fff" style="fill: var(--color2, #fff)" d="M19.254 19.768c0.057-0.133 0.089-0.279 0.089-0.432 0-0.606-0.493-1.099-1.099-1.099h-1.575l0.525-0.883c0.154-0.26 0.194-0.575 0.108-0.865s-0.291-0.533-0.562-0.666c-0.305-0.15-0.668-0.148-0.972 0.005-0.87 0.44-1.661 1.042-2.322 1.76-0.059-0.105-0.171-0.176-0.3-0.176h-3.022c-0.19 0-0.343 0.154-0.343 0.343v1.889c0 0.19 0.154 0.343 0.343 0.343s0.343-0.154 0.343-0.343v-1.545h2.335v6.181h-2.335v-1.545c0-0.19-0.154-0.343-0.343-0.343s-0.343 0.154-0.343 0.343v1.889c0 0.19 0.154 0.343 0.343 0.343h3.022c0.19 0 0.343-0.154 0.343-0.343v-0.012c0.408 0.23 0.874 0.356 1.346 0.356h3.17c0.606 0 1.098-0.493 1.098-1.098 0-0.145-0.029-0.284-0.080-0.412h0.021c0.606 0 1.099-0.493 1.099-1.099 0-0.293-0.115-0.559-0.302-0.756 0.187-0.197 0.302-0.463 0.302-0.756-0-0.535-0.384-0.981-0.89-1.079zM19.045 22.77h-2.241c-0.19 0-0.343 0.154-0.343 0.343s0.154 0.343 0.343 0.343h1.201c0.227 0 0.412 0.185 0.412 0.412s-0.185 0.412-0.412 0.412h-3.17c-0.493 0-0.975-0.182-1.346-0.504v-5.171l0.023-0.031c0.679-0.891 1.566-1.629 2.565-2.134 0.112-0.057 0.245-0.057 0.358-0.002 0.101 0.050 0.175 0.137 0.207 0.245s0.018 0.221-0.040 0.319l-0.833 1.402c-0.063 0.106-0.064 0.238-0.003 0.345s0.175 0.174 0.298 0.174h2.179c0.227 0 0.412 0.185 0.412 0.412s-0.185 0.412-0.412 0.412h-1.44c-0.19 0-0.343 0.154-0.343 0.343s0.154 0.343 0.343 0.343h2.241c0.227 0 0.412 0.185 0.412 0.412s-0.185 0.412-0.412 0.412h-2.241c-0.19 0-0.343 0.154-0.343 0.343s0.154 0.343 0.343 0.343h2.241c0.227 0 0.412 0.185 0.412 0.412s-0.185 0.412-0.412 0.412z"></path>
<path fill="#fff" style="fill: var(--color2, #fff)" d="M21.013 11.634l-1.473-0.214-0.659-1.335c-0.058-0.117-0.177-0.191-0.308-0.191s-0.25 0.074-0.308 0.191l-0.659 1.335-1.473 0.214c-0.129 0.019-0.237 0.109-0.277 0.234s-0.007 0.261 0.087 0.352l1.066 1.039-0.252 1.467c-0.022 0.129 0.031 0.259 0.137 0.336s0.246 0.087 0.362 0.026l1.318-0.693 1.318 0.693c0.050 0.026 0.105 0.039 0.16 0.039 0.071 0 0.142-0.022 0.202-0.066 0.106-0.077 0.159-0.207 0.137-0.336l-0.252-1.467 1.066-1.039c0.094-0.091 0.127-0.228 0.087-0.352s-0.148-0.215-0.277-0.234zM19.528 12.893c-0.081 0.079-0.118 0.193-0.099 0.304l0.165 0.96-0.862-0.453c-0.050-0.026-0.105-0.039-0.16-0.039s-0.11 0.013-0.16 0.039l-0.862 0.453 0.165-0.96c0.019-0.111-0.018-0.225-0.099-0.304l-0.697-0.68 0.963-0.14c0.112-0.016 0.209-0.087 0.259-0.188l0.431-0.873 0.431 0.873c0.050 0.101 0.147 0.172 0.259 0.188l0.963 0.14-0.697 0.68z"></path>
<path fill="#fff" style="fill: var(--color2, #fff)" d="M26.070 12.454c-0.040-0.124-0.148-0.215-0.277-0.234l-1.129-0.164-0.505-1.023c-0.058-0.117-0.177-0.191-0.308-0.191s-0.25 0.074-0.308 0.191l-0.505 1.023-1.129 0.164c-0.129 0.019-0.237 0.109-0.277 0.234s-0.007 0.261 0.087 0.352l0.817 0.796-0.193 1.124c-0.022 0.129 0.031 0.259 0.137 0.336s0.246 0.087 0.362 0.026l1.010-0.531 1.010 0.531c0.050 0.026 0.105 0.039 0.16 0.039 0.071 0 0.142-0.022 0.202-0.066 0.106-0.077 0.159-0.207 0.137-0.336l-0.193-1.124 0.817-0.796c0.094-0.091 0.127-0.228 0.087-0.352zM24.558 13.236c-0.081 0.079-0.118 0.193-0.099 0.304l0.106 0.616-0.554-0.291c-0.050-0.026-0.105-0.039-0.16-0.039s-0.11 0.013-0.16 0.039l-0.554 0.291 0.106-0.616c0.019-0.111-0.018-0.225-0.099-0.304l-0.448-0.437 0.619-0.090c0.112-0.016 0.209-0.087 0.259-0.188l0.277-0.561 0.277 0.561c0.050 0.101 0.147 0.172 0.259 0.188l0.619 0.090-0.448 0.437z"></path>
<path fill="#fff" style="fill: var(--color2, #fff)" d="M11.978 13.602l-0.193 1.124c-0.022 0.129 0.031 0.259 0.137 0.336s0.246 0.087 0.362 0.026l1.010-0.531 1.010 0.531c0.050 0.026 0.105 0.039 0.16 0.039 0.071 0 0.142-0.022 0.202-0.066 0.106-0.077 0.159-0.207 0.137-0.336l-0.193-1.124 0.817-0.796c0.094-0.091 0.127-0.228 0.087-0.352s-0.148-0.215-0.277-0.234l-1.129-0.164-0.505-1.023c-0.058-0.117-0.177-0.191-0.308-0.191s-0.25 0.074-0.308 0.191l-0.505 1.023-1.129 0.164c-0.129 0.019-0.237 0.109-0.277 0.234s-0.007 0.261 0.087 0.352l0.817 0.796zM12.758 12.71c0.112-0.016 0.209-0.087 0.259-0.188l0.277-0.561 0.277 0.561c0.050 0.101 0.147 0.172 0.259 0.188l0.619 0.090-0.448 0.437c-0.081 0.079-0.118 0.193-0.099 0.304l0.106 0.616-0.554-0.291c-0.050-0.026-0.105-0.039-0.16-0.039s-0.11 0.013-0.16 0.039l-0.554 0.291 0.106-0.616c0.019-0.111-0.018-0.225-0.099-0.304l-0.448-0.437 0.619-0.090z"></path>
<path fill="#fff" style="fill: var(--color2, #fff)" d="M18.569 9.085c0.19 0 0.343-0.154 0.343-0.343v-1.014c0-0.19-0.154-0.343-0.343-0.343s-0.343 0.154-0.343 0.343v1.014c0 0.19 0.154 0.343 0.343 0.343z"></path>
<path fill="#fff" style="fill: var(--color2, #fff)" d="M16.036 9.825c0.067 0.067 0.155 0.101 0.243 0.101s0.176-0.034 0.243-0.101c0.134-0.134 0.134-0.352 0-0.486l-0.595-0.595c-0.134-0.134-0.351-0.134-0.486 0s-0.134 0.352 0 0.486l0.595 0.595z"></path>
<path fill="#fff" style="fill: var(--color2, #fff)" d="M20.866 9.926c0.088 0 0.176-0.034 0.243-0.101l0.595-0.595c0.134-0.134 0.134-0.351 0-0.486s-0.351-0.134-0.486 0l-0.595 0.595c-0.134 0.134-0.134 0.351 0 0.486 0.067 0.067 0.155 0.101 0.243 0.101z"></path>
<path fill="#fff" style="fill: var(--color2, #fff)" d="M10.367 21.432c0.064-0.064 0.101-0.152 0.101-0.243s-0.037-0.179-0.101-0.243c-0.064-0.064-0.152-0.101-0.243-0.101s-0.179 0.037-0.243 0.101c-0.064 0.064-0.1 0.152-0.1 0.243s0.036 0.179 0.1 0.243c0.064 0.064 0.152 0.101 0.243 0.101s0.179-0.037 0.243-0.101z"></path>
</symbol>
<symbol id="icon-web-1" viewBox="0 0 31 32">
<path d="M27.4 4.158h-0.372c0.71-1.155 0.448-2.706-0.691-3.551-1.227-0.91-2.971-0.617-3.827 0.662l-1.933 2.889h-16.605c-1.365 0-2.475 1.11-2.475 2.475v15.825c0 1.365 1.11 2.475 2.475 2.475h9.615l-0.726 3.051h-1.568c-1.022 0-1.853 0.831-1.853 1.853v0.387h-1.933c-0.338 0-0.613 0.274-0.613 0.613s0.274 0.613 0.613 0.613h16.36c0.338 0 0.613-0.274 0.613-0.613s-0.274-0.613-0.613-0.613h-1.933v-0.387c0-1.022-0.831-1.853-1.853-1.853h-1.568l-0.726-3.051h9.615c1.365 0 2.475-1.11 2.475-2.475v-15.825c0-1.365-1.11-2.475-2.475-2.475zM18.621 14.93c-0.958 0.671-2.753-0.241-4.467 0.674-0.418-2.172-0.155-4.216 2.022-4.667 0.281-0.059 0.584-0.085 0.842-0.080 0.737 0.547 1.482 1.099 2.217 1.645 0.322 0.935 0.201 1.858-0.614 2.428zM19.238 8.362l1.734 1.287-1.334 1.626c-0.549-0.407-1.021-0.758-1.57-1.165 0.114-0.17 1.065-1.592 1.17-1.748zM23.528 1.951c0.464-0.694 1.411-0.855 2.078-0.36s0.787 1.448 0.258 2.093c-0.939 1.145-3.171 3.867-4.114 5.016l-1.83-1.358 3.608-5.391zM20.708 29.838v0.387h-10.043v-0.387c0-0.346 0.282-0.628 0.628-0.628h8.788c0.346 0 0.628 0.282 0.628 0.628zM17.252 27.985h-3.132l0.726-3.051h1.68l0.726 3.051zM28.65 22.459c0 0.689-0.561 1.25-1.25 1.25-0.973 0-22.335 0-23.428 0-0.689 0-1.25-0.561-1.25-1.25v-2.869h1.751c0.338 0 0.613-0.274 0.613-0.613s-0.274-0.613-0.613-0.613h-1.751v-11.73c0-0.689 0.561-1.25 1.25-1.25h15.785c-0.587 0.877-2.3 3.437-2.842 4.247-1.201 0.011-2.4 0.429-3.184 1.345-1.068 1.247-1.256 3.205-0.558 5.822 0.119 0.447 0.678 0.608 1.015 0.285 1.584-1.514 3.558 0.137 5.325-1.293 1.079-0.873 1.334-2.261 0.927-3.559 0.55-0.67 5.065-6.175 5.616-6.847h1.344c0.689 0 1.25 0.561 1.25 1.25v11.73h-19.275c-0.338 0-0.613 0.274-0.613 0.613s0.274 0.613 0.613 0.613h19.275v2.87z"></path>
<path d="M6.806 18.376c-0.295 0.060-0.493 0.315-0.493 0.601 0 0.383 0.35 0.677 0.732 0.601 0.339-0.069 0.546-0.396 0.481-0.721-0.068-0.335-0.393-0.547-0.721-0.481z"></path>
</symbol>
<symbol id="icon-web-3" viewBox="0 0 31 32">
<path d="M28.615 0.14h-25.858c-1.52 0-2.757 1.237-2.757 2.757v25.735c0 1.52 1.237 2.757 2.757 2.757h25.858c1.52 0 2.757-1.237 2.757-2.757v-25.735c0-1.52-1.237-2.757-2.757-2.757zM2.757 1.978h25.858c0.507 0 0.919 0.412 0.919 0.919v4.596h-27.696v-4.596c0-0.507 0.412-0.919 0.919-0.919zM28.615 29.551h-25.858c-0.507 0-0.919-0.412-0.919-0.919v-19.301h27.696v19.301c0 0.507-0.412 0.919-0.919 0.919z"></path>
<path d="M18.806 12.162c-0.466-0.2-1.007 0.016-1.207 0.483l-5.515 12.868c-0.2 0.466 0.016 1.007 0.483 1.207s1.007-0.016 1.207-0.483l5.515-12.868c0.2-0.467-0.016-1.007-0.483-1.207z"></path>
<path d="M10.889 15.19c-0.317-0.396-0.896-0.461-1.292-0.143l-4.596 3.676c-0.46 0.367-0.46 1.068 0 1.435l4.596 3.677c0.396 0.317 0.975 0.253 1.292-0.143s0.253-0.975-0.144-1.292l-3.698-2.959 3.698-2.959c0.396-0.317 0.461-0.896 0.144-1.292z"></path>
<path d="M26.371 18.723l-4.596-3.677c-0.396-0.317-0.975-0.253-1.292 0.143s-0.253 0.975 0.144 1.292l3.698 2.959-3.698 2.959c-0.396 0.317-0.461 0.895-0.144 1.292s0.896 0.46 1.292 0.143l4.596-3.677c0.459-0.367 0.46-1.068 0-1.435z"></path>
<path d="M4.657 5.654c0.508 0 0.919-0.412 0.919-0.919s-0.412-0.919-0.919-0.919c-0.508 0-0.919 0.412-0.919 0.919s0.412 0.919 0.919 0.919z"></path>
<path d="M8.333 5.654c0.508 0 0.919-0.412 0.919-0.919s-0.411-0.919-0.919-0.919c-0.508 0-0.919 0.412-0.919 0.919s0.411 0.919 0.919 0.919z"></path>
<path d="M12.010 5.654c0.508 0 0.919-0.412 0.919-0.919s-0.412-0.919-0.919-0.919c-0.508 0-0.919 0.412-0.919 0.919s0.411 0.919 0.919 0.919z"></path>
<path d="M21.201 5.654h5.515c0.508 0 0.919-0.412 0.919-0.919s-0.412-0.919-0.919-0.919h-5.515c-0.508 0-0.919 0.412-0.919 0.919s0.412 0.919 0.919 0.919z"></path>
</symbol>
<symbol id="icon-web-2" viewBox="0 0 32 32">
<path  d="M11.758 0.55h-8.421c-1.591 0-2.885 1.294-2.885 2.885v8.421c0 1.591 1.294 2.885 2.885 2.885h8.421c1.591 0 2.885-1.294 2.885-2.885v-8.421c-0-1.591-1.294-2.885-2.885-2.885zM13.084 11.856c0 0.731-0.595 1.325-1.325 1.325h-8.421c-0.731 0-1.325-0.595-1.325-1.325v-8.421c0-0.731 0.595-1.325 1.325-1.325h8.421c0.731 0 1.325 0.595 1.325 1.325v8.421z"></path>
<path  d="M28.274 0.55h-8.421c-1.591 0-2.885 1.294-2.885 2.885v8.421c0 1.591 1.294 2.885 2.885 2.885h8.421c1.591 0 2.885-1.294 2.885-2.885v-8.421c-0-1.591-1.294-2.885-2.885-2.885zM29.599 11.856c0 0.731-0.595 1.325-1.325 1.325h-8.421c-0.731 0-1.325-0.595-1.325-1.325v-8.421c0-0.731 0.595-1.325 1.325-1.325h8.421c0.731 0 1.325 0.595 1.325 1.325v8.421z"></path>
<path  d="M11.758 17.392h-8.421c-1.591 0-2.885 1.294-2.885 2.885v8.421c0 1.591 1.294 2.885 2.885 2.885h8.421c1.591 0 2.885-1.294 2.885-2.885v-8.421c-0-1.591-1.294-2.885-2.885-2.885zM13.084 28.698c0 0.731-0.595 1.325-1.325 1.325h-8.421c-0.731 0-1.325-0.595-1.325-1.325v-8.421c0-0.731 0.595-1.325 1.325-1.325h8.421c0.731 0 1.325 0.595 1.325 1.325v8.421z"></path>
<path  d="M28.274 17.392h-8.421c-1.591 0-2.885 1.294-2.885 2.885v8.421c0 1.591 1.294 2.885 2.885 2.885h8.421c1.591 0 2.885-1.294 2.885-2.885v-8.421c-0-1.591-1.294-2.885-2.885-2.885zM29.599 28.698c0 0.731-0.595 1.325-1.325 1.325h-8.421c-0.731 0-1.325-0.595-1.325-1.325v-8.421c0-0.731 0.595-1.325 1.325-1.325h8.421c0.731 0 1.325 0.595 1.325 1.325v8.421z"></path>
</symbol>
<symbol id="icon-arrow" viewBox="0 0 34 32">
<path d="M19.99 1.029c-0.461 0.462-0.721 1.088-0.721 1.74s0.259 1.279 0.721 1.74l8.103 8.106-25.632 0.017c-0.653 0-1.279 0.259-1.741 0.721s-0.721 1.088-0.721 1.741c0 0.653 0.259 1.279 0.721 1.741s1.088 0.721 1.741 0.721l25.634-0.017-8.106 8.106c-0.235 0.227-0.423 0.499-0.552 0.799s-0.197 0.623-0.2 0.95c-0.003 0.327 0.059 0.651 0.183 0.954s0.307 0.577 0.538 0.808c0.231 0.231 0.506 0.414 0.808 0.538s0.627 0.186 0.953 0.183c0.327-0.003 0.65-0.071 0.95-0.2s0.572-0.317 0.799-0.552l8.827-8.825c0.686-0.686 1.23-1.5 1.601-2.396s0.562-1.856 0.562-2.826-0.191-1.93-0.562-2.826c-0.371-0.896-0.915-1.71-1.601-2.396l-8.827-8.827c-0.462-0.461-1.088-0.721-1.74-0.721s-1.279 0.259-1.74 0.721z"></path>
</symbol>

<symbol id="icon-team_twitter" viewBox="0 0 32 32">
<circle cx="16.0009" cy="15.4667" r="15.4667" fill="#1DA1F2"/>
<path fill-rule="evenodd" clip-rule="evenodd" d="M24.2748 10.1421C23.6664 10.4124 23.0116 10.5944 22.3248 10.6766C23.0259 10.2563 23.5643 9.59098 23.8175 8.79828C23.1622 9.18774 22.4346 9.46963 21.6617 9.62243C21.0422 8.96267 20.1591 8.55005 19.1832 8.55005C17.3082 8.55005 15.7879 10.0704 15.7879 11.9454C15.7879 12.2113 15.8182 12.4705 15.8762 12.7193C13.054 12.5781 10.5523 11.226 8.87756 9.17174C8.58519 9.67318 8.41805 10.2563 8.41805 10.8785C8.41805 12.0562 9.01657 13.0955 9.92842 13.7045C9.37127 13.6869 8.84832 13.5341 8.38991 13.2798V13.3222C8.38991 14.9678 9.56103 16.3397 11.1133 16.6525C10.8287 16.7297 10.5286 16.7716 10.2191 16.7716C10.0001 16.7716 9.78721 16.7501 9.57979 16.7104C10.0117 18.0591 11.2661 19.0411 12.7517 19.0686C11.59 19.9788 10.1259 20.5222 8.53499 20.5222C8.26028 20.5222 7.98998 20.5062 7.72464 20.4742C9.2273 21.4374 11.0118 22 12.9293 22C19.1744 22 22.5896 16.8262 22.5896 12.3398C22.5896 12.1925 22.5868 12.0458 22.5796 11.9007C23.2438 11.4208 23.8197 10.8228 24.2748 10.1421Z" fill="white"/>
</symbol>
<symbol id="icon-team_facebook" viewBox="0 0 32 32">
<circle cx="15.4667" cy="15.4667" r="15.4667" fill="#4D77CF"/>
<path fill-rule="evenodd" clip-rule="evenodd" d="M18.7026 11.2841C18.3324 11.21 17.8323 11.1547 17.5179 11.1547C16.6664 11.1547 16.6111 11.525 16.6111 12.1173V13.1718H18.7396L18.5541 15.3561H16.6111V22H13.9459V15.3561H12.5761V13.1718H13.9459V11.8207C13.9459 9.97003 14.8157 8.93341 16.9996 8.93341C17.7583 8.93341 18.3136 9.04448 19.0353 9.19257L18.7026 11.2841Z" fill="white"/>
</symbol>
<symbol id="icon-team_linkedin" viewBox="0 0 32 32">
<circle cx="15.5331" cy="15.4667" r="15.4667" fill="#0077B5"/>
<path fill-rule="evenodd" clip-rule="evenodd" d="M11.9525 8.55361C11.9525 9.42444 11.2894 10.1292 10.2525 10.1292C9.25598 10.1292 8.59292 9.42444 8.61344 8.55361C8.59292 7.64046 9.25597 6.95624 10.2724 6.95624C11.2894 6.95624 11.9326 7.64046 11.9525 8.55361ZM8.69681 21.5173V11.3739H11.8492V21.5166H8.69681V21.5173Z" fill="white"/>
<path fill-rule="evenodd" clip-rule="evenodd" d="M14.376 14.611C14.376 13.3458 14.3343 12.2672 14.2926 11.3752H17.0308L17.1763 12.7648H17.2385C17.6534 12.1217 18.6904 11.1476 20.3705 11.1476C22.4443 11.1476 24 12.5167 24 15.5024V21.5186H20.8475V15.8974C20.8475 14.5899 20.3916 13.6985 19.2508 13.6985C18.3793 13.6985 17.8612 14.3 17.6541 14.8803C17.5707 15.0881 17.5297 15.378 17.5297 15.6691V21.5186H14.3772V14.611H14.376Z" fill="white"/>
</symbol>

<symbol id="icon-instagram" viewBox="0 0 32 32">
<path fill="#646464" style="fill: var(--color6, #646464)" d="M16 0c-8.837 0-16 7.163-16 16s7.163 16 16 16c8.837 0 16-7.163 16-16s-7.163-16-16-16zM12.482 7.518c0.91-0.041 1.201-0.052 3.519-0.052h-0.003c2.318 0 2.608 0.010 3.518 0.052 0.909 0.042 1.529 0.185 2.073 0.396 0.562 0.218 1.037 0.509 1.511 0.984s0.766 0.95 0.985 1.512c0.21 0.543 0.354 1.163 0.396 2.071 0.041 0.91 0.052 1.201 0.052 3.519s-0.011 2.608-0.052 3.518c-0.043 0.908-0.187 1.528-0.396 2.071-0.219 0.561-0.51 1.037-0.985 1.511s-0.95 0.767-1.511 0.985c-0.543 0.211-1.164 0.355-2.072 0.396-0.91 0.041-1.2 0.052-3.518 0.052s-2.608-0.010-3.518-0.052c-0.908-0.042-1.529-0.185-2.072-0.396-0.561-0.218-1.037-0.51-1.511-0.985s-0.766-0.95-0.984-1.512c-0.211-0.543-0.355-1.163-0.396-2.071-0.041-0.91-0.052-1.2-0.052-3.518s0.011-2.608 0.051-3.519c0.041-0.908 0.185-1.528 0.396-2.071 0.219-0.561 0.51-1.037 0.985-1.511s0.95-0.766 1.512-0.984c0.543-0.211 1.163-0.355 2.071-0.396z"></path>
<path fill="#646464" style="fill: var(--color6, #646464)" d="M15.236 9.004v-0.002c-1.59 0.002-1.896 0.012-2.683 0.048-0.832 0.038-1.284 0.177-1.585 0.294-0.398 0.155-0.683 0.34-0.981 0.639s-0.484 0.583-0.639 0.981c-0.117 0.301-0.256 0.752-0.294 1.584-0.041 0.899-0.049 1.168-0.049 3.447s0.008 2.549 0.049 3.449c0.038 0.832 0.177 1.284 0.294 1.584 0.155 0.398 0.34 0.682 0.639 0.981s0.583 0.484 0.981 0.638c0.301 0.117 0.753 0.256 1.585 0.294 0.9 0.041 1.17 0.050 3.448 0.050s2.549-0.009 3.448-0.050c0.832-0.038 1.284-0.177 1.584-0.294 0.398-0.155 0.682-0.34 0.981-0.638s0.484-0.582 0.639-0.98c0.117-0.3 0.256-0.752 0.294-1.584 0.041-0.9 0.050-1.17 0.050-3.447s-0.009-2.548-0.050-3.447c-0.038-0.832-0.177-1.284-0.294-1.584-0.155-0.398-0.34-0.683-0.639-0.981s-0.582-0.484-0.981-0.638c-0.301-0.117-0.752-0.256-1.584-0.294-0.9-0.041-1.17-0.049-3.448-0.049l-0.284-0c-0.173-0-0.332-0-0.481 0zM20.556 10.421v-0c0.565 0 1.024 0.459 1.024 1.024s-0.459 1.024-1.024 1.024-1.024-0.459-1.024-1.024c0-0.566 0.459-1.024 1.024-1.024zM11.619 15.999c0-2.42 1.962-4.382 4.382-4.382s4.382 1.962 4.382 4.382-1.961 4.381-4.381 4.381c-2.42 0-4.382-1.961-4.382-4.381z"></path>
<path fill="#646464" style="fill: var(--color6, #646464)" d="M16.001 13.155c1.571 0 2.845 1.274 2.845 2.845s-1.274 2.845-2.845 2.845c-1.571 0-2.845-1.274-2.845-2.845s1.274-2.845 2.845-2.845v0z"></path>
</symbol>
<symbol id="icon-facebook" viewBox="0 0 32 32">
<path fill="#646464" style="fill: var(--color6, #646464)" d="M16 0c-8.837 0-16 7.163-16 16s7.163 16 16 16c8.837 0 16-7.163 16-16s-7.163-16-16-16zM17.668 16.703v8.705h-3.602v-8.705h-1.799v-3h1.799v-1.801c0-2.447 1.016-3.902 3.903-3.902h2.403v3h-1.502c-1.124 0-1.198 0.419-1.198 1.202l-0.004 1.501h2.721l-0.318 3h-2.403z"></path>
</symbol>
<symbol id="icon-twitter" viewBox="0 0 32 32">
<path fill="#646464" style="fill: var(--color6, #646464)" d="M16 0c-8.837 0-16 7.163-16 16s7.163 16 16 16c8.837 0 16-7.163 16-16s-7.163-16-16-16zM15.554 13.558l-0.034-0.554c-0.101-1.435 0.783-2.746 2.182-3.254 0.515-0.181 1.388-0.203 1.959-0.045 0.224 0.068 0.649 0.294 0.951 0.497l0.548 0.373 0.604-0.192c0.336-0.102 0.783-0.271 0.985-0.384 0.19-0.102 0.358-0.158 0.358-0.124 0 0.192-0.414 0.847-0.761 1.209-0.47 0.508-0.336 0.554 0.616 0.215 0.571-0.192 0.582-0.192 0.47 0.023-0.067 0.113-0.414 0.508-0.783 0.87-0.627 0.621-0.66 0.689-0.66 1.209 0 0.802-0.381 2.474-0.761 3.39-0.705 1.717-2.216 3.491-3.727 4.384-2.126 1.254-4.958 1.57-7.342 0.836-0.795-0.249-2.16-0.881-2.16-0.994 0-0.034 0.414-0.079 0.918-0.090 1.052-0.023 2.104-0.316 2.999-0.836l0.604-0.362-0.694-0.237c-0.985-0.339-1.869-1.119-2.093-1.853-0.067-0.237-0.045-0.249 0.582-0.249l0.649-0.011-0.548-0.26c-0.649-0.328-1.242-0.881-1.533-1.446-0.213-0.407-0.481-1.435-0.403-1.514 0.022-0.034 0.257 0.034 0.526 0.124 0.772 0.282 0.873 0.215 0.425-0.26-0.839-0.859-1.097-2.136-0.694-3.344l0.19-0.542 0.739 0.735c1.511 1.48 3.29 2.361 5.327 2.621l0.56 0.068z"></path>
</symbol>
<symbol id="icon-youtube" viewBox="0 0 32 32">
<path fill="#646464" style="fill: var(--color6, #646464)" d="M16 0c-8.837 0-16 7.163-16 16s7.163 16 16 16c8.837 0 16-7.163 16-16s-7.163-16-16-16zM22.668 10.5c0.734 0.201 1.313 0.795 1.509 1.549 0.357 1.367 0.357 4.218 0.357 4.218s0 2.851-0.357 4.218c-0.196 0.754-0.775 1.348-1.509 1.549-1.331 0.366-6.668 0.366-6.668 0.366s-5.337 0-6.668-0.366c-0.734-0.202-1.313-0.795-1.509-1.549-0.357-1.367-0.357-4.218-0.357-4.218s0-2.851 0.357-4.218c0.196-0.754 0.775-1.348 1.509-1.549 1.331-0.366 6.668-0.366 6.668-0.366s5.337 0 6.668 0.366z"></path>
<path fill="#646464" style="fill: var(--color6, #646464)" d="M14.4 19.199v-5.333l4.267 2.667-4.267 2.667z"></path>
</symbol>
</defs>
</svg>
