<svg width="16" height="16" viewBox="0 0 16 16" fill="none" xmlns="http://www.w3.org/2000/svg">
<path fill-rule="evenodd" clip-rule="evenodd" d="M3.95248 2.55361C3.95248 3.42444 3.28942 4.12918 2.2525 4.12918C1.25598 4.12918 0.592919 3.42444 0.613439 2.55361C0.592919 1.64046 1.25597 0.956238 2.27236 0.956238C3.2894 0.956238 3.9326 1.64046 3.95248 2.55361ZM0.696806 15.5173V5.37386H3.84923V15.5166H0.696806V15.5173Z" fill="white"/>
<path fill-rule="evenodd" clip-rule="evenodd" d="M6.37597 8.61101C6.37597 7.34581 6.33428 6.26722 6.2926 5.37523H9.03077L9.17633 6.76484H9.23854C9.65344 6.12166 10.6904 5.14758 12.3705 5.14758C14.4443 5.14758 16 6.51667 16 9.50236V15.5186H12.8475V9.89738C12.8475 8.58985 12.3916 7.6985 11.2508 7.6985C10.3793 7.6985 9.86121 8.3 9.65409 8.88034C9.57072 9.08811 9.52968 9.37795 9.52968 9.66909V15.5186H6.37724V8.61101H6.37597Z" fill="white"/>
</svg>
