<svg width="18" height="14" viewBox="0 0 18 14" fill="none" xmlns="http://www.w3.org/2000/svg">
<path fill-rule="evenodd" clip-rule="evenodd" d="M17.2748 2.14207C16.6664 2.41237 16.0116 2.59441 15.3248 2.6766C16.0259 2.25626 16.5643 1.59098 16.8175 0.798283C16.1622 1.18774 15.4346 1.46963 14.6617 1.62243C14.0422 0.962672 13.1591 0.550049 12.1832 0.550049C10.3082 0.550049 8.7879 2.07036 8.7879 3.94537C8.7879 4.21125 8.81824 4.47052 8.87616 4.71931C6.05399 4.57809 3.55232 3.22603 1.87756 1.17174C1.58519 1.67318 1.41805 2.25626 1.41805 2.87851C1.41805 4.05625 2.01657 5.09553 2.92842 5.70454C2.37127 5.68688 1.84832 5.53408 1.38991 5.27978V5.32225C1.38991 6.96778 2.56103 8.3397 4.11334 8.65247C3.82869 8.7297 3.5286 8.77163 3.21914 8.77163C3.00014 8.77163 2.78721 8.75011 2.57979 8.71039C3.01172 10.0591 4.26614 11.0411 5.7517 11.0686C4.58995 11.9788 3.12591 12.5222 1.53499 12.5222C1.26028 12.5222 0.989977 12.5062 0.72464 12.4742C2.2273 13.4374 4.01184 14 5.92932 14C12.1744 14 15.5896 8.82624 15.5896 4.33978C15.5896 4.1925 15.5868 4.04577 15.5796 3.90069C16.2438 3.42076 16.8197 2.82279 17.2748 2.14207Z" fill="white"/>
</svg>
